# xmcd
#
# Track frame offsets: 
#        150
#        19604
#        40294
#        52407
#        74994
#        91568
#        107195
#        122749
#        140740
#        161020
#        178856
#        201412
#        219919
#        251915
#
# Disc length: 3528 seconds
#
# Revision: 1
# Processed by: cddbd v1.5.2PL0 Copyright (c) Steve Scherf et al.
# Submitted via: ExactAudioCopyFreeDBPlugin 1.0
#
DISCID=dd0dc60e
DTITLE=Various Artist - AUDIOphile Pearls Vol.25
DYEAR=1900
DGENRE=
TTITLE0=John Bonamassa - King Bee Shakedown
TTITLE1=Paul Carrack - Life In A Bubble
TTITLE2=BRTHR - Love Me Like You Do
TTITLE3=Doyla Bramhall ll ft.Eric Clapton - Everything You Need
TTITLE4=Paul Stepehenson - Like Irene
TTITLE5=Amber Rubarth - If I fall Asleep
TTITLE6=Torum Eriksen - Shopping On A Rainy Day
TTITLE7=Jean-Michel Jarre - Magnetic Fields ll
TTITLE8=Uriah Heep - Grazed By Heaven
TTITLE9=Dead Letter Circus - The Real You
TTITLE10=Modest Mussorgsky - Pictures At An Exhibition - The Great Gat
TTITLE10=e of Kiev
TTITLE11=W.A.Mozart - Sinfonie D-Dur Nr.35
TTITLE12=Peter Tschaikowski - Souvenier De Florence
TTITLE13=Leos Jamacek - Varhany Solo
EXTD=
EXTT0=
EXTT1=
EXTT2=
EXTT3=
EXTT4=
EXTT5=
EXTT6=
EXTT7=
EXTT8=
EXTT9=
EXTT10=
EXTT11=
EXTT12=
EXTT13=
PLAYORDER=
